# xmcd
#
# Track frame offsets:
#	150
#	14345
#	33337
#	44681
#	57724
#	68612
#	79304
#	94047
#	106977
#	118327
#	130749
#	141881
#
# Disc length: 2051 seconds
#
# Revision: 1
# Processed by: cddbd v1.5.1PL0 Copyright (c) Steve Scherf et al.
# Submitted via: audiograbber 1.83.01
#
DISCID=ab08010c
DTITLE=The Bluegrass 45 - Caravan
DYEAR=1900
DGENRE=
TTITLE0=What Am I Doing Hanging Round
TTITLE1=New Tokaido Line
TTITLE2=Kiso
TTITLE3=Blues Stay Away From Me
TTITLE4=Apartment 1101
TTITLE5=Last Call To Glory
TTITLE6=Someday Soon
TTITLE7=Caravan
TTITLE8=Hana
TTITLE9=Smile All The Way
TTITLE10=Ronnie Bucke
TTITLE11=Come Home My Dear One
EXTD=
EXTT0=
EXTT1=
EXTT2=
EXTT3=
EXTT4=
EXTT5=
EXTT6=
EXTT7=
EXTT8=
EXTT9=
EXTT10=
EXTT11=
PLAYORDER=
